<svg xmlns="http://www.w3.org/2000/svg" xmlns:xlink="http://www.w3.org/1999/xlink" width="1440" zoomAndPan="magnify" viewBox="0 0 1080 1079.999946" height="1440" preserveAspectRatio="xMidYMid meet" version="1.0"><defs><clipPath id="79ae585eb7"><path d="M 108 108 L 972 108 L 972 972 L 108 972 Z M 108 108 " clip-rule="nonzero"/></clipPath><clipPath id="51a23e3392"><path d="M 183 108 L 897 108 C 916.890625 108 935.96875 115.902344 950.03125 129.96875 C 964.097656 144.03125 972 163.109375 972 183 L 972 897 C 972 916.890625 964.097656 935.96875 950.03125 950.03125 C 935.96875 964.097656 916.890625 972 897 972 L 183 972 C 163.109375 972 144.03125 964.097656 129.96875 950.03125 C 115.902344 935.96875 108 916.890625 108 897 L 108 183 C 108 163.109375 115.902344 144.03125 129.96875 129.96875 C 144.03125 115.902344 163.109375 108 183 108 Z M 183 108 " clip-rule="nonzero"/></clipPath><clipPath id="c448707c44"><path d="M 0 0 L 864 0 L 864 864 L 0 864 Z M 0 0 " clip-rule="nonzero"/></clipPath><clipPath id="b1b2dd1cfc"><path d="M 75 0 L 789 0 C 808.890625 0 827.96875 7.902344 842.03125 21.96875 C 856.097656 36.03125 864 55.109375 864 75 L 864 789 C 864 808.890625 856.097656 827.96875 842.03125 842.03125 C 827.96875 856.097656 808.890625 864 789 864 L 75 864 C 55.109375 864 36.03125 856.097656 21.96875 842.03125 C 7.902344 827.96875 0 808.890625 0 789 L 0 75 C 0 55.109375 7.902344 36.03125 21.96875 21.96875 C 36.03125 7.902344 55.109375 0 75 0 Z M 75 0 " clip-rule="nonzero"/></clipPath><clipPath id="da1d4b408f"><rect x="0" width="864" y="0" height="864"/></clipPath><clipPath id="010e8e99f8"><path d="M 173.742188 153.957031 L 906.492188 153.957031 L 906.492188 925.707031 L 173.742188 925.707031 Z M 173.742188 153.957031 " clip-rule="nonzero"/></clipPath></defs><g clip-path="url(#79ae585eb7)"><g clip-path="url(#51a23e3392)"><g transform="matrix(1, 0, 0, 1, 108, 108)"><g clip-path="url(#da1d4b408f)"><g clip-path="url(#c448707c44)"><g clip-path="url(#b1b2dd1cfc)"><rect x="-345.6" width="1555.2" fill="#635bff" height="1555.199922" y="-345.599988" fill-opacity="1"/></g></g></g></g></g></g><g clip-path="url(#010e8e99f8)"><path fill="#ffffff" d="M 906.4375 153.957031 L 763.339844 291.777344 C 703.027344 244.425781 636.617188 218.597656 533.222656 218.597656 C 344.464844 218.597656 206.539062 363.304688 206.539062 539.867188 L 206.539062 541.585938 C 206.539062 637.21875 241.867188 719.871094 303.96875 777.554688 L 173.800781 925.707031 C 448.785156 660.398438 655.640625 442.445312 906.4375 153.957031 Z M 349.632812 538.078125 C 349.632812 432.113281 428.902344 344.296875 528.054688 344.296875 C 587.507812 344.296875 626.34375 359.792969 665.117188 387.34375 C 563.382812 485.558594 487.558594 566.488281 394.503906 672.453125 C 366.070312 638.015625 349.699219 592.382812 349.699219 539.800781 L 349.699219 538.078125 Z M 349.632812 538.078125 " fill-opacity="1" fill-rule="evenodd"/></g><path fill="#ffffff" d="M 534.085938 611.257812 L 667.703125 611.257812 L 667.703125 699.9375 C 632.375 724.90625 588.433594 737.820312 538.394531 737.820312 C 501.34375 737.820312 467.742188 728.347656 439.242188 711.128906 L 345.328125 809.347656 C 397.023438 842.921875 461.710938 861.863281 534.085938 861.863281 C 647.886719 861.863281 735.769531 817.957031 799.53125 763.648438 L 799.53125 493.308594 L 646.164062 493.308594 Z M 534.085938 611.257812 " fill-opacity="1" fill-rule="evenodd"/></svg>